<?xml version="1.0" encoding="UTF-8"?>
<svg width="54px" height="71px" viewBox="0 0 54 71" version="1.1" xmlns="http://www.w3.org/2000/svg" xmlns:xlink="http://www.w3.org/1999/xlink">
    <!-- Generator: Sketch 61 (89581) - https://sketch.com -->
    <title>icon_1</title>
    <desc>Created with Sketch.</desc>
    <g id="Oleez_home" stroke="none" stroke-width="1" fill="none" fill-rule="evenodd">
        <g id="icon_1" fill-rule="nonzero">
            <path d="M21.5847414,2.53644331 L35,2.55260929 L35,9.17414211 L30.6455736,9.14116373 L15.4487496,9.14116373 C11.7345833,9.13987055 8.72306174,12.1053343 8.72437501,15.7626966 L8.72437501,68.5196305 C5.01020874,68.5209232 1.99868716,65.5554595 2,61.8980972 L2,9.14116373 C1.99868716,5.48380146 5.01020874,2.51833772 8.72437501,2.51963048 L21.5847414,2.53644331 Z" id="Path" fill="#F4E9CB"></path>
            <path d="M35.4587646,1.03655748 C35.1809565,0.768328485 34.8220939,0.599057485 34.4383919,0.552833652 L34.0533827,0.519630485 L8.3669245,0.519630485 C3.74681338,0.521583618 0.0019610063,4.25140132 0,8.85296382 L0,62.1862972 C0.0019610063,66.7878597 3.74681338,70.5176773 8.3669245,70.5196305 L45.6330755,70.5196305 C50.2531866,70.5176773 53.9986926,66.7878597 54,62.1862972 L54,20.1693702 C53.9967317,19.7279638 53.8228565,19.3041357 53.5149798,18.9864273 L35.4587646,1.03655748 Z M35.9111013,6.20322415 L48.3274866,18.5365575 L40.931256,18.5365575 C38.1616733,18.528094 35.9189455,16.2943702 35.9111013,13.5365575 L35.9111013,6.20322415 Z M45.6500707,67.1862972 L8.3669245,67.1862972 C5.59799542,67.1784847 3.35461379,64.9441097 3.3467698,62.1862972 L3.3467698,8.85296382 C3.35461379,6.09515132 5.59799542,3.86077632 8.3669245,3.85296382 L32.5643315,3.85296382 L32.5643315,13.5365575 C32.5656389,18.1381202 36.3104913,21.8679378 40.931256,21.8698908 L50.6532418,21.8698908 L50.6532418,62.1862972 C50.6591132,64.9434587 48.4183462,67.183042 45.6500707,67.1862972 Z" id="Shape" fill="#F7B500"></path>
            <g id="Group" transform="translate(12.000000, 29.519630)" fill="#F7B500">
                <path d="M1.70949511,3.37209302 L16.6183294,3.37209302 C17.5530649,3.37209302 18.3106371,2.61732385 18.3106371,1.68604651 C18.3106371,0.754769174 17.5530649,0 16.6183294,0 L1.70949511,0 C0.774759615,0 0.0171874154,0.754769174 0.0171874154,1.68604651 C0.0171874154,2.61732385 0.774759615,3.37209302 1.70949511,3.37209302 Z" id="Path"></path>
                <path d="M31.2567909,12.746775 L1.70949511,12.746775 C0.774759615,12.746775 0.0171874154,13.5015443 0.0171874154,14.4328215 C0.0171874154,15.3634403 0.774759615,16.118868 1.70949511,16.118868 L31.2567909,16.118868 C32.1915264,16.118868 32.9490986,15.3634403 32.9490986,14.4328215 C32.9490986,13.5015443 32.1915264,12.746775 31.2567909,12.746775 Z" id="Path"></path>
                <path d="M31.2567909,25.5100154 L1.70949511,25.5100154 C0.774759615,25.5100154 0.0171874154,26.2647847 0.0171874154,27.1960619 C0.0171874154,28.1273392 0.774759615,28.8821084 1.70949511,28.8821084 L31.2567909,28.8821084 C32.1915264,28.8821084 32.9490986,28.1273392 32.9490986,27.1960619 C32.9490986,26.2647847 32.1915264,25.5100154 31.2567909,25.5100154 Z" id="Path"></path>
            </g>
        </g>
    </g>
</svg>