<?xml version="1.0" encoding="UTF-8"?>
<svg width="72px" height="67px" viewBox="0 0 72 67" version="1.1" xmlns="http://www.w3.org/2000/svg" xmlns:xlink="http://www.w3.org/1999/xlink">
    <!-- Generator: Sketch 61 (89581) - https://sketch.com -->
    <title>icon_2</title>
    <desc>Created with Sketch.</desc>
    <g id="Oleez_home" stroke="none" stroke-width="1" fill="none" fill-rule="evenodd">
        <g id="icon_2" fill-rule="nonzero">
            <polygon id="Path" fill="#F4E9CB" points="17.2126234 26.5196305 36 65.5196305 2 26.5196305"></polygon>
            <polygon id="Path" fill="#F4E9CB" points="27 2.51963048 17.4566762 25.5196305 2 25.5196305 16.2095171 2.51963048"></polygon>
            <path d="M36.2414061,66.5196305 C35.5641399,66.5203325 34.9466933,66.1238556 34.6537842,65.4996153 L16.1736997,26.2069244 C15.9577997,25.7478829 15.9426729,25.217138 16.1310697,24.746146 L25.3700807,1.63871163 C25.737936,0.719222592 26.7658678,0.277755379 27.6659098,0.653846123 C28.565952,1.02993669 28.9970644,2.08088177 28.6292093,3.00107373 L19.6851702,25.3675742 L37.8269654,63.9397176 C38.0882457,64.4971753 38.051804,65.1530495 37.7300167,65.6767646 C37.4082293,66.2004796 36.8464764,66.5189264 36.2414061,66.5196305 Z" id="Path" fill="#F7B500"></path>
            <path d="M35.7584077,66.5196305 C35.1540481,66.5189264 34.5916293,66.2004796 34.2698542,65.6767646 C33.9480792,65.1530495 33.9116389,64.4971753 34.1735967,63.9397176 L52.3146963,25.3675742 L43.3710002,3.00107373 C43.003159,2.08088177 43.4349426,1.02993669 44.3349501,0.653846123 C45.2342701,0.277755379 46.2621627,0.719222592 46.6300037,1.63871163 L55.8686604,24.746146 C56.0577375,25.217138 56.0419239,25.7478829 55.826032,26.2069244 L37.3466562,65.4989122 C37.0530708,66.1231524 36.4356479,66.5203325 35.7584077,66.5196305 L35.7584077,66.5196305 Z" id="Path" fill="#F7B500"></path>
            <path d="M71.6730469,26.4193537 C71.6857031,26.4010574 71.6969531,26.3848723 71.7096094,26.3665762 C71.7271875,26.3391319 71.7440625,26.3102803 71.7609375,26.2814287 C71.7714844,26.2638363 71.7820312,26.24554 71.791875,26.2272438 C71.8101562,26.1941701 71.825625,26.1603925 71.8410938,26.1259112 C71.8488281,26.1076151 71.8579688,26.0900227 71.865,26.0717264 C71.8832812,26.0288008 71.8994531,25.9844677 71.9135156,25.9401347 C71.9198438,25.9190238 71.9254688,25.8979129 71.9310938,25.8760982 C71.9402344,25.8451355 71.9479688,25.8141727 71.9557031,25.7825061 C71.960625,25.7606916 71.9648438,25.7388769 71.9690625,25.7163585 C71.9753906,25.6811735 71.9810156,25.6459887 71.9852344,25.6108038 C71.9873438,25.5925075 71.9901562,25.5742113 71.9915625,25.5566189 C71.9971875,25.5024341 72,25.4482493 72,25.3926571 L72,25.3877311 C72,25.3792868 71.9985938,25.3722499 71.9985938,25.3638055 C71.9985938,25.3180651 71.9957812,25.2723245 71.9915625,25.2265842 C71.9901562,25.2075843 71.9880469,25.1885845 71.9859375,25.1702883 C71.9810156,25.1336959 71.9760938,25.0985111 71.9690625,25.063326 C71.9655469,25.0429188 71.9620312,25.0225114 71.9578125,25.002808 C71.9500781,24.9662155 71.9395312,24.930327 71.9296875,24.8944383 C71.9254688,24.8775496 71.92125,24.8606608 71.915625,24.843772 C71.9008594,24.7959205 71.8832812,24.7487726 71.8642969,24.7023286 C71.8551562,24.6805139 71.8453125,24.6601067 71.8354688,24.638292 C71.8228125,24.6108477 71.8094531,24.5841072 71.7953906,24.5566629 C71.7841406,24.5348482 71.7721875,24.5130337 71.7595312,24.4919226 C71.7517969,24.4785523 71.7454688,24.465182 71.7370312,24.4518118 L57.6710156,1.35219448 C57.3405469,0.823012974 56.75625,0.507052252 56.1332812,0.520014488 L15.8674219,0.520014488 C15.24375,0.507052252 14.6601562,0.823012974 14.3296875,1.35219448 L0.26296884,24.4658858 C0.25453116,24.4792561 0.24820308,24.4841819 0.24046884,24.4982558 C0.2278125,24.5193669 0.21585942,24.5362557 0.20460942,24.558774 C0.19054692,24.5855145 0.1771875,24.6108477 0.16453116,24.638292 C0.1546875,24.659403 0.14484384,24.6798102 0.13570308,24.7009211 C0.11671884,24.748069 0.09984384,24.7945132 0.084375,24.8423645 C0.07875,24.8585496 0.07453116,24.8754384 0.0703125,24.8923272 C0.05976558,24.9282159 0.04992192,24.9641046 0.0421875,25.0006969 C0.03796884,25.0204005 0.03445308,25.0408077 0.0309375,25.0612149 C0.02390616,25.0971036 0.01898442,25.1329923 0.0140625,25.1681771 C0.011953116,25.1857695 0.00984375,25.2054733 0.0084375,25.224473 C0.00421875,25.2702134 0.002109384,25.315954 0.00140625,25.3616943 C0.00140625,25.3694351 0,25.3771756 0,25.3856202 L0,25.3905459 C0,25.4447307 0.0028125,25.4996193 0.0084375,25.5545079 C0.00984375,25.5721003 0.01265625,25.5903964 0.014765616,25.6079888 C0.01898442,25.6445814 0.02460942,25.6797662 0.0309375,25.7142474 C0.03515616,25.7367658 0.039375,25.7585805 0.04429692,25.7803952 C0.05132808,25.8120616 0.05976558,25.8430243 0.06890616,25.8739871 C0.07453116,25.8958018 0.08015616,25.9169127 0.08648442,25.9380237 C0.10054692,25.9823568 0.11671884,26.025986 0.135,26.0696153 C0.14203116,26.0879115 0.15117192,26.1055039 0.15890616,26.1238002 C0.174375,26.1575777 0.19054692,26.1920589 0.208125,26.2251328 C0.21796884,26.2434289 0.22851558,26.2610213 0.2390625,26.2793176 C0.2559375,26.3081692 0.2728125,26.3363171 0.29039058,26.3644651 C0.30234384,26.3827614 0.31429692,26.4003538 0.32695308,26.4172426 C0.3459375,26.4446869 0.36632808,26.4714273 0.38742192,26.4988716 C0.40007808,26.5143529 0.41203116,26.5298344 0.4246875,26.5453158 C0.43101558,26.5523527 0.4359375,26.5593896 0.4415625,26.5664267 L34.6415625,65.8996719 C34.6535156,65.9130422 34.6661719,65.9243014 34.678125,65.9369679 C34.7027344,65.9637086 34.7280469,65.9911527 34.7547656,66.0164858 C34.7730469,66.0340783 34.7927344,66.050967 34.8117188,66.0685596 C34.8391406,66.0924853 34.8658594,66.1150037 34.8946875,66.137522 C34.9150781,66.1530035 34.9347656,66.1677811 34.9551562,66.1825588 C34.9853906,66.2043735 35.0170312,66.2247807 35.049375,66.2444842 C35.0683594,66.2571509 35.0880469,66.2691138 35.1077344,66.2810766 C35.1435938,66.3007802 35.1801562,66.3197801 35.2160156,66.3373725 C35.2335938,66.3458169 35.251875,66.3556688 35.2701562,66.3634095 C35.3109375,66.3810019 35.3524219,66.397187 35.3946094,66.4119647 C35.4107812,66.4175942 35.4255469,66.4246311 35.4417188,66.4302607 C35.4874219,66.4450384 35.5338281,66.4570014 35.5809375,66.4682606 C35.5942969,66.471779 35.6083594,66.4760013 35.6224219,66.4788159 C35.6716406,66.4900751 35.7215625,66.4971122 35.7721875,66.5034454 C35.7848438,66.5055566 35.7967969,66.5076677 35.8080469,66.509075 C35.9353125,66.523149 36.0625781,66.523149 36.1898438,66.509075 C36.2017969,66.5076677 36.21375,66.5055566 36.2257031,66.5034454 C36.2763281,66.4971122 36.32625,66.4900751 36.3754688,66.4788159 C36.3895312,66.4760013 36.4035938,66.471779 36.4176562,66.4682606 C36.4640625,66.4570014 36.5104688,66.4450384 36.5561719,66.4302607 C36.5723438,66.425335 36.5871094,66.4182979 36.6032812,66.4119647 C36.6454688,66.397187 36.6869531,66.3810019 36.7277344,66.3634095 C36.7460156,66.3549649 36.7635938,66.3451132 36.781875,66.3373725 C36.8177344,66.3190764 36.855,66.301484 36.8901562,66.2810766 C36.9098438,66.2691138 36.9295312,66.2571509 36.9485156,66.2444842 C36.9808594,66.2247807 37.0117969,66.2043735 37.0427344,66.1825588 C37.063125,66.1677811 37.0828125,66.1530035 37.1032031,66.137522 C37.1313281,66.1150037 37.15875,66.0924853 37.1854688,66.0685596 C37.2051562,66.050967 37.2241406,66.0340783 37.243125,66.0164858 C37.2698438,65.990449 37.2951562,65.9637086 37.3197656,65.9369679 C37.3317188,65.9243014 37.344375,65.9130422 37.355625,65.8996719 L71.555625,26.5664267 C71.5619531,26.5593896 71.566875,26.5523527 71.5732031,26.5453158 C71.5858594,26.5298344 71.5978125,26.5143529 71.6104688,26.4988716 C71.6329688,26.4735385 71.6540625,26.4475017 71.6730469,26.4193537 Z M34.2,59.9048617 L5.75296884,27.1821632 L34.2,27.1821632 L34.2,59.9048617 Z M37.8,27.1821632 L66.2477344,27.1821632 L37.8,59.9048617 L37.8,27.1821632 Z M66.9972656,23.5792253 L37.8,23.5792253 L37.8,4.1233605 L55.1214844,4.1233605 L66.9972656,23.5792253 Z M16.8792188,4.1233605 L34.2,4.1233605 L34.2,23.5792253 L5.00273442,23.5792253 L16.8792188,4.1233605 Z" id="Shape" fill="#F7B500"></path>
        </g>
    </g>
</svg>