<?xml version="1.0" encoding="UTF-8"?>
<svg width="67px" height="67px" viewBox="0 0 67 67" version="1.1" xmlns="http://www.w3.org/2000/svg" xmlns:xlink="http://www.w3.org/1999/xlink">
    <!-- Generator: Sketch 61 (89581) - https://sketch.com -->
    <title>icon_3</title>
    <desc>Created with Sketch.</desc>
    <g id="Oleez_home" stroke="none" stroke-width="1" fill="none" fill-rule="evenodd">
        <g id="icon_3" fill-rule="nonzero">
            <path d="M14.3761416,8.68867711 L66,8.68867711 C66.0012081,5.28124298 63.2298711,2.51842606 59.811929,2.51963048 L8.18807098,2.51963048 C4.77012887,2.51842606 1.99879186,5.28124298 2,8.68867711 L2,46.3505839 C1.99879186,49.758018 4.77012887,52.5208349 8.18807098,52.5196305 L8.18807098,14.8577233 C8.18686245,11.4502892 10.9581995,8.68747229 14.3761416,8.68867711 Z" id="Path" fill="#F4E9CB"></path>
            <polygon id="Path" fill="#F7B500" points="1 39.5196305 66 39.5196305 66 42.5196305 1 42.5196305"></polygon>
            <path d="M59.2740131,0.519630485 L7.72598693,0.519630485 C3.45979352,0.52082969 0.00181078591,3.95633107 0,8.19404909 L0,45.6757897 C0.00181078591,49.9135077 3.45979352,53.3484096 7.72598693,53.3502083 L31.9548026,53.3502083 L31.9548026,63.449863 L20.7364282,63.449863 C19.882948,63.449863 19.1912308,64.1369634 19.1912308,64.9847468 C19.1912308,65.8325303 19.882948,66.5196305 20.7364282,66.5196305 L47.0047838,66.5196305 C47.8582638,66.5196305 48.5499812,65.8325303 48.5499812,64.9847468 C48.5499812,64.1369634 47.8582638,63.449863 47.0047838,63.449863 L35.0451974,63.449863 L35.0451974,53.3502083 L59.2740131,53.3502083 C63.5402066,53.3484096 66.9981893,49.9135077 67,45.6757897 L67,8.19404909 C66.9981893,3.95633107 63.5402066,0.52082969 59.2740131,0.519630485 Z M63.9096052,45.6757897 C63.9017586,48.2155426 61.830832,50.2732461 59.2740131,50.2804408 L7.72598693,50.2804408 C5.16916813,50.2732461 3.09763788,48.2155426 3.09039477,45.6757897 L3.09039477,8.19404909 C3.09763788,5.65369666 5.16916813,3.59659269 7.72598693,3.58939793 L59.289103,3.58939793 C61.8465254,3.59659269 63.9174521,5.65369666 63.9246952,8.19404909 L63.9246952,45.6757897 L63.9096052,45.6757897 Z" id="Shape" fill="#F7B500"></path>
        </g>
    </g>
</svg>