<?xml version="1.0" encoding="UTF-8"?>
<svg width="20px" height="21px" viewBox="0 0 20 21" version="1.1" xmlns="http://www.w3.org/2000/svg" xmlns:xlink="http://www.w3.org/1999/xlink">
    <!-- Generator: Sketch 61 (89581) - https://sketch.com -->
    <title>shopping-cart</title>
    <desc>Created with Sketch.</desc>
    <g id="Symbols" stroke="none" stroke-width="1" fill="none" fill-rule="evenodd">
        <g id="Header" transform="translate(-926.000000, -30.000000)" fill="#000000" fill-rule="nonzero">
            <g id="Group-4">
                <g id="Group-3" transform="translate(27.000000, 19.000000)">
                    <g id="shopping-cart" transform="translate(899.000000, 11.000000)">
                        <g id="Group">
                            <path d="M6.86830579,16.2027715 C5.5357438,16.2027715 4.45177686,17.2786934 4.45177686,18.6013652 C4.45177686,19.9240371 5.53578512,20.999959 6.86830579,20.999959 C8.20086777,20.999959 9.28483471,19.92375 9.28483471,18.6013652 C9.28483471,17.2789805 8.20086777,16.2027715 6.86830579,16.2027715 Z M6.86830579,19.5316816 C6.35169421,19.5316816 5.93128099,19.1146348 5.93128099,18.6016113 C5.93128099,18.0885879 6.35169421,17.671541 6.86830579,17.671541 C7.38516529,17.671541 7.80533058,18.0885879 7.80533058,18.6016113 C7.80533058,19.1146348 7.38516529,19.5316816 6.86830579,19.5316816 Z" id="Shape"></path>
                            <path d="M15.6469835,16.2027715 C14.3141736,16.2027715 13.2302066,17.2787344 13.2302066,18.6013652 C13.2302066,19.9240371 14.3142149,20.999959 15.6469835,20.999959 C16.9792975,20.999959 18.0635124,19.9239961 18.0635124,18.6013652 C18.0635124,17.2787344 16.9792975,16.2027715 15.6469835,16.2027715 Z M15.6469835,19.5314355 C15.130124,19.5314355 14.7097107,19.1141426 14.7097107,18.6013652 C14.7097107,18.0885879 15.130124,17.671541 15.6469835,17.671541 C16.163595,17.671541 16.5840083,18.0883418 16.5840083,18.6013652 C16.5840083,19.1143887 16.163843,19.5314355 15.6469835,19.5314355 Z" id="Shape"></path>
                            <path d="M5.80797521,15.4687559 L17.3235124,15.4687559 C17.7323554,15.4687559 18.0632645,15.1400566 18.0632645,14.7344941 C18.0632645,14.3289316 17.7321074,14.0002324 17.3235124,14.0002324 L6.43702479,14.0002324 L4.31909091,1.10578125 C4.26830579,0.796892578 4.02615702,0.554121094 3.71570248,0.500513672 L0.879958678,0.0109921875 C0.476280992,-0.0585292969 0.094338843,0.209015625 0.0242975207,0.608425781 C-0.0459917355,1.00812305 0.223801653,1.38821484 0.626198347,1.45773633 L2.94334711,1.85767969 L5.0777686,14.8524551 C5.13628099,15.2081016 5.44524793,15.4687559 5.80797521,15.4687559 Z" id="Path"></path>
                        </g>
                        <path d="M19.8446281,4.75654102 C19.7052893,4.56684375 19.4833884,4.45474805 19.2469008,4.45474805 L4.20516529,4.45474805 L4.20516529,5.92327148 L18.2321901,5.92327148 L16.7104959,10.6225547 L5.26549587,10.6225547 L5.26549587,12.0910781 L17.2497934,12.0910781 C17.5708264,12.0910781 17.8556612,11.8849746 17.9540496,11.5815 L19.951405,5.41365234 C20.0236364,5.19024023 19.9839256,4.94599219 19.8446281,4.75654102 Z" id="Path"></path>
                    </g>
                </g>
            </g>
        </g>
    </g>
</svg>